<svg enable-background="new -152.74 63.065 414.767 442.014" viewBox="-152.74 63.065 414.767 442.014" xmlns="http://www.w3.org/2000/svg"><g fill="#fff"><path d="m260.3 213.913c-.151-.408-.327-.813-.527-1.214-.115-.229-.237-.453-.367-.67.004-.298.008-.597.013-.896.04-2.738.08-5.476.079-8.214-.001-5.083-.26-10.618-.792-16.919-.438-5.174-1.093-11.3-2.646-17.515-1.523-6.094-3.635-11.917-5.678-17.549l-1.287-3.573c-1.927-5.389-3.92-10.961-6.885-16.394-.021-.037-.041-.074-.062-.111-2.723-4.843-5.882-9.161-8.936-13.336-.606-.828-1.211-1.654-1.808-2.479-3.905-5.401-7.821-10.632-12.788-15.25-5.126-4.766-10.782-8.726-16.816-11.773-5.052-2.852-10.259-4.697-14.861-6.329l-.678-.24c-5.506-1.953-10.757-3.445-16.053-4.561-4.354-.916-8.611-1.457-12.729-1.98-.718-.091-1.436-.182-2.153-.275-1.453-.965-3.9-2.505-7.188-2.8-2.039-.333-4.071-.686-6.101-1.038-3.867-.672-7.867-1.367-11.897-1.917-3.784-.515-7.482-.77-11.059-1.016-2.655-.183-5.164-.355-7.624-.625-2.446-.268-4.89-.619-7.478-.99-3.598-.516-7.317-1.05-11.141-1.361-3.95-.321-7.838-.427-11.598-.53-2.48-.068-4.824-.132-7.171-.253-2.094-.108-4.188-.241-6.28-.374-4.055-.258-8.248-.524-12.48-.612-4.99-.103-9.981-.033-14.809.034-1.33.019-2.661.037-3.991.052-3.942.044-7.786.332-11.502.609-2.517.188-4.894.366-7.27.47-2.426.107-4.95.058-7.624.006-3.598-.069-7.319-.141-11.209.159-3.865.3-7.574.888-11.162 1.457-2.604.413-5.063.803-7.495 1.073-2.197.244-4.389.444-6.709.657-3.733.341-7.588.693-11.5 1.245-2.638.185-4.744 1.101-6.057 1.671-.096.042-.19.084-.285.126-.052.006-.104.014-.156.021-7.124 1.018-13.963 2.885-20.577 4.691l-1.381.377c-7.143 1.945-13.835 4.52-20.307 7.009l-.695.267c-2.554.982-4.504 2.919-5.552 5.277-3.604 2.819-7.25 5.988-11.043 9.596-4.585 4.361-9.421 9.151-13.729 14.625-3.786 4.81-8.076 10.262-11.627 16.341-3.145 5.378-6.048 11.231-8.876 17.891-2.108 4.962-3.513 9.941-4.872 14.755-.387 1.373-.774 2.745-1.178 4.113-2.032 6.892-3.561 13.137-4.671 19.091-.203 1.087-.411 2.174-.619 3.262-.99 5.174-2.014 10.524-2.532 16.085-.084.907-.044 1.82.118 2.716.822 4.518.889 9.318.89 14.673 0 2.676-.047 5.438-.093 8.108-.045 2.621-.092 5.327-.096 8.037-.302 4.197-.255 8.29-.209 12.251.03 2.637.059 5.128-.011 7.596-.075 2.665-.311 5.398-.56 8.292-.325 3.773-.661 7.674-.661 11.734 0 3.735.207 7.385.408 10.916.176 3.106.343 6.04.37 8.935l.038 3.825c.053 5.215.107 10.606.107 15.833 0 .175.004.35.014.524.14 2.667.184 5.32.23 8.131.059 3.522.119 7.164.385 10.852.327 4.555.961 8.97 1.575 13.24.284 1.979.569 3.96.821 5.95.727 5.748 1.625 12.456 3.074 19.347.176.837.459 1.647.841 2.412.484.968.96 1.74 1.339 2.335 1.037 5.917 2.104 11.707 3.724 17.483 1.511 5.388 3.526 10.374 5.475 15.196l.717 1.777c.395.982.783 1.966 1.17 2.948 1.776 4.508 3.613 9.168 6.129 13.729 2.968 5.381 6.409 10.086 10.272 15.238l.214.286c3.518 4.694 7.156 9.549 11.706 13.952 4.266 4.129 9.188 8.082 14.625 11.748 5.465 3.686 10.467 6.942 16.275 9.454 3.713 1.637 7.393 2.782 10.952 3.891 2.176.678 4.232 1.317 6.184 2.034 1.48.545 2.956 1.106 4.431 1.667 4.042 1.538 8.223 3.128 12.62 4.436 4.691 1.394 9.371 2.434 13.896 3.438 1.238.274 2.476.55 3.708.831 1.423.325 2.844.663 4.265 1.001 4.333 1.031 8.814 2.097 13.468 2.838 5.082.809 10.102 1.238 14.957 1.654 1.036.088 2.072.177 3.108.27 5.798.516 11.454.695 18.161.806 1.985.032 4.022.155 6.18.285 2.706.164 5.477.331 8.342.331 1.228 0 2.472-.031 3.735-.105 6.395-.381 12.526-.978 18.228-1.774 4.271-.597 8.198-1.669 11.998-2.706 2.038-.557 3.964-1.082 5.853-1.509 1.042-.236 2.086-.467 3.13-.698 4.769-1.055 9.701-2.145 14.663-3.734 6.16-1.974 11.938-4.423 17.037-6.584 2.334-.989 4.206-2.829 5.235-5.146 3.014-6.78 3.115-13.279 2.816-18.743-.127-2.309-.385-4.529-.635-6.677-.307-2.637-.596-5.127-.596-7.406 0-5.49-2.241-10.756-6.312-14.826-2.013-2.011-4.794-3.076-7.624-2.913-2.841.157-5.479 1.517-7.256 3.737-1.334 1.668-5.98 2.426-9.715 3.034l-.642.105c-2.332.173-4.207.881-5.504 1.37-.145.055-.288.112-.431.165-.16.015-.32.034-.479.057-6.222.89-13.272 1.897-20.04 2.262-6.685.359-13.293.317-19.64-.131-1.543-.153-3.069-.285-4.582-.416-3.264-.281-6.346-.548-9.279-1.01-1.658-.263-3.411-.654-5.267-1.068-2.75-.614-5.851-1.306-9.184-1.675-2.679-.516-5.061-.807-7.368-1.088-2.031-.248-3.957-.482-5.942-.862-5.197-1.535-10.391-4.071-15.071-6.634-.851-1.493-1.919-2.535-2.729-3.182-.317-.253-.649-.486-.994-.698-4.59-2.825-7.794-6.634-9.525-11.317-2.085-5.646-2.874-12.457-3.266-17.459 4.697 1.324 9.605 2.58 14.93 3.821 1.431.334 2.86.679 4.289 1.022 4.169 1.005 8.481 2.044 12.912 2.845 3.985.72 7.916 1.166 11.717 1.598 1.911.217 3.822.433 5.727.685 4.958.656 9.91 1.082 14.698 1.492l2.762.239c6.256.549 12.343.867 17.471 1.107 2 .094 3.998.224 5.997.354 3.711.24 7.549.49 11.472.524 3.755.026 7.42-.157 10.962-.342 2.247-.117 4.37-.228 6.489-.282 2.235-.059 4.582.036 7.062.135 3.333.134 6.778.271 10.4.062 3.58-.209 6.961-.725 10.23-1.225 2.455-.374 4.774-.729 7.014-.927 1.723-.132 3.506-.201 5.394-.275 4.001-.157 8.138-.32 12.484-1.085 4.376-.77 8.343-2.078 12.18-3.344 1.804-.595 3.508-1.157 5.181-1.638 6.588-1.895 12.029-3.778 17.125-5.931l1.024-.433c5.118-2.158 10.41-4.391 15.531-7.449 5.097-3.041 10.03-6.577 15.086-10.813 5.731-4.805 9.869-8.847 13.417-13.104 3.7-4.44 7.19-9.575 10.377-15.265 2.265-3.442 3.604-6.209 4.891-10.064.156-.47.277-.951.363-1.439.489-2.797 1.064-5.554 1.674-8.474.537-2.57 1.092-5.228 1.58-7.905.545-2.996.956-5.943 1.354-8.794.379-2.716.737-5.28 1.191-7.79.442-2.442.967-4.87 1.522-7.44.635-2.938 1.291-5.976 1.824-9.078 1.104-6.421 1.976-11.732 2.742-16.711.273-1.767.56-3.532.847-5.297.608-3.75 1.238-7.627 1.737-11.538.452-3.546.543-6.939.632-10.22.064-2.418.126-4.702.329-6.878.186-2 .428-4.008.684-6.134.425-3.52.863-7.159 1.058-10.948.009-.17.013-.341.013-.511 0-2.736-1-4.85-1.726-6.085zm-19.199 15.15c-.262 2.166-.531 4.405-.742 6.674-.264 2.831-.337 5.557-.408 8.193-.078 2.917-.152 5.673-.479 8.228-.455 3.572-1.03 7.112-1.639 10.861-.296 1.816-.591 3.633-.872 5.456-.749 4.864-1.603 10.065-2.687 16.372-.461 2.683-1.044 5.383-1.662 8.24-.566 2.62-1.151 5.328-1.653 8.102-.526 2.907-.93 5.796-1.319 8.59-.387 2.771-.752 5.389-1.223 7.976-.441 2.423-.946 4.841-1.48 7.4-.564 2.701-1.146 5.487-1.659 8.334-.594 1.691-1.174 2.901-2.56 4.98-.149.224-.29.454-.421.689-2.632 4.737-5.477 8.95-8.453 12.522-2.756 3.308-6.118 6.571-10.899 10.579-4.229 3.544-8.313 6.478-12.489 8.969-3.928 2.346-8.36 4.216-13.053 6.195l-1.035.437c-4.341 1.833-9.064 3.464-14.868 5.132-2.045.588-4.015 1.237-5.92 1.866-3.306 1.091-6.429 2.12-9.379 2.64-3.017.53-6.314.66-9.806.798-2.006.078-4.08.16-6.192.322-.036.003-.071.006-.106.009-2.895.254-5.662.677-8.34 1.085-2.945.449-5.728.874-8.375 1.028-2.641.155-5.456.04-8.438-.078-2.694-.108-5.482-.223-8.383-.145-2.38.062-4.732.185-7.007.303-3.393.176-6.589.354-9.748.314-3.363-.029-6.758-.249-10.353-.482-2.118-.138-4.237-.274-6.357-.374-4.928-.23-10.76-.535-16.659-1.053l-2.798-.242c-4.772-.409-9.28-.796-13.783-1.392-2.028-.269-4.062-.5-6.096-.731-3.641-.413-7.079-.803-10.417-1.406-3.861-.697-7.708-1.625-11.782-2.606-1.476-.355-2.952-.711-4.432-1.057-5.793-1.351-11.042-2.713-16.047-4.166l-1.659-.48c-4.766-1.38-9.267-2.683-13.849-4.293-4.155-1.461-8.777-.031-11.381 3.521s-2.578 8.39.064 11.913c.153.205.242.602.471 2.126.313 2.075.741 4.916 2.315 8.063.214.428.458.839.729 1.23.534 6.512 1.583 14.534 4.389 22.132 2.834 7.672 7.832 14.255 14.56 19.229.946 1.912 2.297 3.185 3.286 3.926.331.248.677.476 1.037.681 6.595 3.769 14.496 7.952 23.093 10.408.259.074.521.138.786.19 2.873.574 5.397.883 7.839 1.181 2.166.265 4.212.514 6.34.939.319.064.641.112.965.145 2.327.233 4.749.773 7.313 1.346 2.076.464 4.223.943 6.505 1.304 3.631.572 7.214.882 10.679 1.182 1.471.127 2.956.255 4.458.404.094.01.188.018.282.024 7.216.515 14.711.569 22.276.162 7.459-.401 14.791-1.433 21.3-2.363 2.395-.154 4.317-.88 5.639-1.379.145-.055.288-.112.431-.165.237-.022.474-.053.708-.092l1.163-.191c2.466-.402 5.264-.858 8.123-1.651.093.875.193 1.739.293 2.595.225 1.936.438 3.763.53 5.461.14 2.556.098 4.521-.158 6.179-3.55 1.472-7.315 2.954-11.062 4.154-4.082 1.308-8.355 2.253-12.881 3.254-1.074.237-2.15.476-3.225.719-2.317.523-4.548 1.133-6.705 1.722-3.341.911-6.496 1.772-9.5 2.193-5.179.724-10.779 1.268-16.644 1.616-3.017.179-6.257-.017-9.688-.224-2.276-.138-4.63-.28-7.054-.32-6.274-.103-11.518-.267-16.717-.729-1.058-.094-2.118-.185-3.177-.275-4.706-.402-9.151-.783-13.518-1.479-3.907-.621-7.831-1.555-11.985-2.543-1.478-.352-2.956-.703-4.441-1.043-1.273-.29-2.548-.573-3.824-.856-4.38-.973-8.517-1.892-12.533-3.085-3.682-1.095-7.338-2.485-11.209-3.958-1.543-.587-3.086-1.174-4.639-1.745-2.428-.892-4.823-1.638-7.14-2.358-3.166-.986-6.155-1.917-8.895-3.124-4.304-1.861-8.308-4.479-13.097-7.708-4.469-3.013-8.472-6.221-11.897-9.536-3.408-3.299-6.421-7.319-9.612-11.576l-.216-.288c-3.528-4.705-6.413-8.642-8.762-12.9-1.894-3.434-3.419-7.305-5.034-11.402-.404-1.025-.809-2.053-1.221-3.076l-.731-1.812c-1.825-4.517-3.549-8.781-4.761-13.103-1.331-4.744-2.242-9.622-3.19-15.015-.271-3.592-1.807-6.069-2.718-7.494-1.116-5.639-1.865-11.274-2.485-16.179-.266-2.103-.566-4.194-.866-6.283-.59-4.105-1.147-7.983-1.423-11.832-.226-3.137-.279-6.348-.335-9.747-.046-2.779-.094-5.649-.242-8.582-.002-5.245-.056-10.598-.108-15.776l-.038-3.813c-.032-3.366-.22-6.677-.401-9.878-.193-3.401-.375-6.615-.375-9.783 0-3.2.285-6.513.587-10.019.262-3.048.534-6.201.625-9.441.081-2.866.049-5.674.018-8.391-.043-3.819-.085-7.427.181-10.881.02-.255.029-.511.029-.767 0-2.662.047-5.41.093-8.067.048-2.756.097-5.606.096-8.456-.001-5.839-.079-11.177-.966-16.793.463-4.192 1.276-8.443 2.133-12.919.214-1.118.428-2.236.636-3.354.984-5.276 2.355-10.87 4.193-17.1.426-1.442.834-2.891 1.244-4.34 1.244-4.409 2.419-8.573 4.032-12.369 2.493-5.87 5.022-10.977 7.735-15.618 2.855-4.888 6.691-9.763 10.075-14.063 3.526-4.479 7.754-8.656 11.798-12.502 4.691-4.462 8.883-7.967 13.192-11.029.456-.324.883-.685 1.279-1.081.158-.158.309-.317.454-.477 4.667-1.767 9.418-3.47 14.144-4.757l1.393-.38c6.139-1.676 11.945-3.262 17.686-4.12 2.629-.188 4.728-1.1 6.038-1.67.096-.042.19-.084.286-.126.059-.007.119-.016.178-.024 3.556-.517 7.143-.844 10.94-1.191 2.314-.211 4.708-.43 7.101-.696 2.895-.322 5.702-.767 8.417-1.198 3.347-.531 6.508-1.032 9.575-1.27 2.925-.227 6.009-.167 9.277-.104 2.867.056 5.832.115 8.89-.021 2.682-.118 5.325-.315 7.881-.506 3.563-.266 6.928-.517 10.237-.554 1.349-.015 2.697-.034 4.045-.053 4.658-.065 9.472-.132 14.117-.036 3.805.078 7.604.32 11.625.575 2.173.138 4.347.276 6.519.388 2.587.134 5.163.204 7.654.272 3.656.1 7.11.194 10.524.472 3.211.261 6.469.729 9.919 1.224 2.637.378 5.363.77 8.144 1.074 2.861.313 5.689.507 8.426.696 3.399.234 6.61.456 9.733.88 3.666.5 7.313 1.134 11.173 1.804 1.992.346 3.987.692 5.987 1.021 1.476.981 4.014 2.603 7.447 2.854.97.127 1.939.251 2.91.374 3.894.495 7.57.962 11.128 1.711 4.416.931 8.828 2.187 13.487 3.839l.684.243c4.263 1.511 8.29 2.938 11.863 4.98.161.092.324.179.49.262 4.421 2.21 8.588 5.122 12.386 8.654 3.639 3.384 6.901 7.76 10.202 12.324.618.855 1.244 1.711 1.871 2.568 2.819 3.854 5.482 7.495 7.615 11.276 2.199 4.047 3.841 8.635 5.578 13.492l1.316 3.655c1.956 5.393 3.803 10.487 5.076 15.58 1.208 4.837 1.75 9.968 2.119 14.349.485 5.738.721 10.724.722 15.241.001 2.639-.038 5.278-.077 7.917-.024 1.692-.049 3.383-.064 5.075-.493 2.151-.284 4.459.645 6.658.374.976.897 1.883 1.546 2.69-.139 1.245-.291 2.508-.446 3.8z"/><path d="m190.589 207.661.003-1.747c.021-6.784.041-13.799-1.774-20.94-1.874-7.365-5.437-14.491-10.889-21.781-6.286-8.75-14.651-13.53-22.036-17.75-.222-.126-.448-.245-.68-.354-4.944-2.342-10.383-4.11-17.117-5.562-5.268-1.136-11.444-2.337-17.859-2.252-6.67.092-12.553.794-17.986 2.148-6.592 1.644-12.167 3.685-17.04 6.238-4.834 2.427-9.594 5.611-13.77 9.21-5.096 4.393-8.705 9.27-10.743 14.514-2.615-4.279-5.682-7.844-8.677-11.327-.882-1.025-1.779-2.068-2.68-3.149-.194-.232-.397-.456-.611-.669-5.187-5.186-11.691-11.003-20.57-14.808-6.101-2.653-12.902-4.686-20.215-6.042-6.454-1.197-13.42-1.506-21.293-.949-8.551.606-15.333 1.981-21.346 4.328-6.397 2.497-12.544 6.291-18.791 11.599-.037.031-.073.062-.109.094-5.197 4.546-8.993 9.095-11.605 13.908-2.651 4.886-3.679 9.845-4.586 14.221-.13.626-.259 1.25-.393 1.868l-.483 1.436c-1.378 4.074-2.94 8.692-3.822 13.662-.91 5.121-1.379 10.558-1.394 16.165-.157 2.791-.407 5.594-.672 8.557-.285 3.189-.58 6.487-.755 9.838-.176 3.384-.241 6.753-.303 10.012-.058 3.012-.112 5.856-.247 8.711-.132 2.773-.376 5.563-.634 8.516-.289 3.303-.588 6.718-.728 10.202-.142 3.547-.147 7.06-.153 10.458-.005 2.882-.01 5.605-.091 8.332-.076 2.55-.186 5.098-.296 7.643-.157 3.64-.32 7.403-.381 11.164-.064 3.913-.015 7.827.034 11.612.031 2.439.062 4.873.062 7.292 0 2.898 1.258 5.655 3.448 7.555 2.19 1.898 5.097 2.755 7.966 2.345 5.494-.784 11.624-1.021 19.29-.746 6.423.231 13.065.47 19.737 1.423 2.777.397 5.592-.392 7.76-2.171s3.488-4.388 3.64-7.189c.122-2.249.279-4.462.436-6.665.271-3.817.552-7.765.648-11.859.155-6.647.194-13.187.211-18.709.01-3.517-.183-6.941-.369-10.253-.163-2.903-.317-5.645-.335-8.344-.019-2.705.181-5.522.392-8.505.227-3.214.462-6.538.441-9.997-.02-3.243-.224-6.39-.422-9.434-.204-3.13-.396-6.087-.38-8.955l.007-1.333c.029-5.576.06-11.341.211-16.955.003-.09.004-.18.004-.271 0-2.783 1.536-5.66 2.825-7.585 1.697-2.535 4.832-5 7.651-7.116 3.396-2.454 7.032-3.527 11.106-3.279 4.153.251 7.619 1.419 10.325 3.475 1.172 1.63 2.415 2.675 3.349 3.341 1.863 3.105 2.949 6.628 3.952 10.85.834 3.511 1.138 7.368 1.459 11.451.097 1.227.193 2.455.304 3.683.089 1.333.104 1.594.104 2.226 0 .522.041 1.043.123 1.56.75 4.751.91 9.801.537 16.881-.29 5.467-.691 11.917-1.476 18.308-.774 6.304-1.183 12.337-1.557 19.456-.287 5.461 3.865 10.14 9.321 10.503 3.733.249 7.433.688 11.351 1.151 1.048.124 2.106.249 3.179.373 2.084.239 4.202.568 6.444.916 2.909.452 5.917.919 9.032 1.212 4.171.392 8.147.295 11.993.202.612-.015 1.223-.03 1.83-.042 1.924.386 4.361.299 7.134-1.088 4.148-2.074 6.326-6.729 5.261-11.242-.332-1.408-.954-2.688-1.792-3.782-.384-5.22-.342-9.56.118-13.747.466-4.243 1.042-8.593 1.599-12.8.278-2.097.556-4.195.823-6.296l.074-.58c.829-6.497 1.687-13.214 1.321-20.525-.008-.165-.021-.331-.037-.495-.368-3.688.129-7.239 1.439-10.275 1.392-3.227 4.119-6.506 7.049-9.86 1.129-1.196 1.871-2.379 2.376-3.183.022-.037.046-.074.068-.111 3.093-2.533 7.365-4.176 11.591-4.431 4.337-.263 7.615 1.851 9.714 3.824 2.414 3.181 3.971 7.015 4.751 11.701.225 1.347-.157 3.44-.562 5.657-.632 3.464-1.348 7.39-.484 11.708.174.872.464 1.716.861 2.511.286.571.365.96.378 1.341-.203 5.84-.503 11.492-.893 16.804-.205 2.808-.524 5.626-.862 8.609-.318 2.816-.648 5.728-.882 8.686-.283 3.618-.331 7.144-.377 10.553-.033 2.486-.065 4.835-.184 7.152-.099 1.947-.253 3.903-.417 5.975-.305 3.868-.62 7.868-.579 12.029.052 5.348.606 10.521 1.143 15.525.075.699.15 1.398.224 2.098-.021.271-.057.621-.085.902-.271 2.686-.773 7.683 2.922 11.769 1.904 2.106 4.479 3.403 7.361 3.733 6.717 1.47 13.161 1.838 19.4 2.195l2.989.171c4.7.266 9.188.52 13.587 1.05.088.039.177.078.267.115 1.131.47 2.458.766 3.868.766 2.557 0 5.384-.973 7.801-3.638 2.221-2.45 3.071-5.818 2.329-8.992.183-2.503.436-5.04.698-7.682.234-2.347.476-4.774.669-7.216.251-3.201.639-6.397 1.05-9.781.326-2.691.664-5.474.93-8.28.285-3.005.593-6.007.9-9.007.314-3.079.63-6.156.922-9.234.341-3.603.419-7.103.494-10.488.063-2.799.122-5.443.322-8.012.164-2.106.358-4.209.552-6.313.367-3.984.747-8.104.934-12.289.091-2.047.225-4.089.366-6.251.266-4.06.541-8.257.521-12.572-.021-4.266-.479-8.333-.923-12.266-.248-2.204-.484-4.29-.636-6.339zm-18.919 29.867c-.143 2.169-.289 4.412-.39 6.669-.165 3.71-.507 7.417-.868 11.342-.202 2.197-.405 4.395-.576 6.595-.243 3.121-.312 6.17-.378 9.118-.07 3.17-.138 6.165-.41 9.051-.287 3.027-.597 6.053-.907 9.081-.313 3.051-.625 6.103-.914 9.159-.241 2.544-.549 5.075-.874 7.756-.418 3.442-.85 7.002-1.134 10.623-.177 2.232-.397 4.451-.632 6.801-.028.285-.057.571-.085.858-2.508-.184-4.988-.324-7.434-.462l-2.977-.17c-3.746-.215-7.359-.422-10.865-.859-.07-.668-.142-1.335-.213-2.003-.508-4.736-.987-9.211-1.03-13.589-.032-3.277.235-6.67.519-10.262.167-2.116.34-4.305.453-6.528.137-2.691.173-5.341.207-7.902.044-3.232.085-6.286.317-9.254.206-2.614.503-5.231.816-8.001.346-3.047.702-6.198.937-9.402.412-5.635.729-11.624.941-17.801.004-.114.006-.229.006-.343 0-2.907-.547-5.75-1.63-8.479.063-.945.346-2.501.548-3.61.63-3.451 1.413-7.745.615-12.535-1.375-8.249-4.474-15.433-9.21-21.353-.23-.288-.477-.563-.738-.824-7.029-7.029-16.076-10.588-25.448-10.023-8.996.542-17.868 4.195-24.342 10.022-.13.117-.257.238-.381.362-1.298 1.298-2.126 2.617-2.674 3.489-.066.106-.131.214-.199.318-.044.049-.088.098-.132.148-3.917 4.477-7.955 9.345-10.518 15.286-2.618 6.065-3.654 12.945-3.003 19.912.248 5.466-.454 10.961-1.196 16.774l-.074.586c-.264 2.07-.537 4.135-.81 6.198-.571 4.315-1.162 8.776-1.653 13.24-.422 3.842-.573 7.812-.452 12.123-.795-.031-1.575-.079-2.34-.151-2.513-.236-5.099-.638-7.836-1.063-2.335-.363-4.75-.737-7.226-1.022-1.051-.121-2.087-.244-3.113-.365-.825-.098-1.643-.194-2.453-.289.224-2.91.491-5.705.838-8.522.858-6.997 1.289-13.879 1.597-19.689.29-5.499.474-12.727-.639-20.302-.018-.908-.067-1.653-.149-2.874-.005-.08-.012-.159-.019-.238-.108-1.187-.201-2.375-.294-3.561-.367-4.664-.747-9.487-1.939-14.508-1.38-5.804-3.393-12.598-7.86-18.981-.334-.478-.709-.925-1.121-1.337-.708-.708-1.393-1.238-1.946-1.624-.437-.625-.944-1.201-1.513-1.713-6.183-5.563-14.287-8.797-23.437-9.351-8.674-.52-17.017 1.935-24.132 7.109-.04.029-.079.058-.118.087-4.154 3.115-8.876 6.872-12.333 12.036-4.085 6.1-6.173 12.343-6.206 18.561-.155 5.792-.186 11.628-.215 17.272l-.007 1.331c-.019 3.571.206 7.021.422 10.358.187 2.881.364 5.603.38 8.257.017 2.693-.182 5.497-.392 8.466-.229 3.231-.465 6.573-.441 10.052.021 3.193.197 6.313.367 9.33.177 3.161.345 6.147.337 9.071-.017 5.42-.054 11.832-.205 18.302-.059 2.493-.196 4.95-.364 7.464-3.896-.262-7.645-.396-11.145-.521-4.161-.149-7.967-.164-11.524-.039-.026-2.577-.037-5.176.004-7.704.058-3.493.207-6.96.366-10.629.114-2.636.228-5.272.306-7.911.089-3.007.095-5.999.1-8.892.005-3.357.011-6.528.138-9.692.12-3.011.386-6.045.667-9.257.264-3.018.537-6.139.688-9.312.148-3.138.208-6.258.266-9.276.062-3.239.12-6.299.279-9.352.156-2.98.421-5.953.703-9.1.276-3.091.562-6.288.736-9.515.01-.18.015-.36.015-.54 0-4.537.365-8.893 1.086-12.95.619-3.487 1.812-7.016 3.076-10.751l.676-2.009c.109-.326.201-.658.275-.993.194-.874.378-1.759.563-2.649.688-3.316 1.336-6.448 2.581-8.741 1.454-2.677 3.791-5.409 7.144-8.35 4.506-3.821 8.777-6.491 13.054-8.16 4.082-1.593 9.004-2.549 15.49-3.009 6.159-.438 11.468-.22 16.23.663 5.828 1.082 11.173 2.669 15.937 4.74 5.652 2.422 10.263 6.522 14.045 10.279.866 1.035 1.729 2.038 2.579 3.026 3.619 4.209 6.499 7.558 8.341 11.674.439 1.322.863 2.612 1.286 3.9-.433 1.357-.521 2.551-.521 3.295 0 4.407 2.885 8.294 7.103 9.571 3.956 1.199 8.218-.169 10.747-3.375.885-.799 1.558-1.652 2.068-2.501.813-.803 1.779-1.641 2.775-2.506 3.806-3.303 8.528-7.403 10.572-14.229.782-2.222 2.601-4.607 5.271-6.908 2.926-2.522 6.388-4.837 9.747-6.517.063-.031.124-.063.186-.095 3.458-1.82 7.599-3.318 12.656-4.58 3.92-.977 8.312-1.486 13.422-1.556 4.366-.058 8.984.86 13.371 1.805 5.031 1.085 8.997 2.337 12.44 3.931 6.293 3.597 11.723 6.755 15.4 11.905.045.063.091.125.138.187 3.879 5.172 6.356 10.015 7.575 14.804 1.191 4.684 1.175 10.157 1.157 15.951l-.004 2.156c0 .232.008.465.024.697.181 2.586.464 5.1.738 7.53.401 3.565.781 6.933.797 10.123.016 3.608-.224 7.279-.479 11.165z"/></g></svg>